# xmcd CD database file
#
# Track frame offsets:
#	150
#	33700
#	53540
#	69067
#	89895
#	105517
#	127322
#	154727
#	180912
#
# Disc length: 2732 seconds
#
# Revision: 1
# Processed by: cddbd v1.5PL3 Copyright (c) Steve Scherf et al.
# Submitted via: CDex 1.50beta10
#
DISCID=720aaa09
DTITLE=Champion Jack Dupree - Forever And Ever
DYEAR=1991
DGENRE=Blues
TTITLE0=They Gave Me Away
TTITLE1=Hometown New Orleans
TTITLE2=Skit Skat
TTITLE3=Poor Boy
TTITLE4=Forever And Ever
TTITLE5=Yella Pocahontas
TTITLE6=Third Degree
TTITLE7=Dupree Special
TTITLE8=Let's Talk It Over
EXTD=YEAR: 1991
EXTT0=
EXTT1=
EXTT2=
EXTT3=
EXTT4=
EXTT5=
EXTT6=
EXTT7=
EXTT8=
PLAYORDER=
